<svg width="425" height="58" viewBox="0 0 425 58" fill="none" xmlns="http://www.w3.org/2000/svg">
<path d="M60.56 54.56V58H0V54.56H19.36C14.72 52.2133 11.0133 48.7733 8.24 44.24C5.52 39.7067 4.16 34.5867 4.16 28.88C4.16 20.72 6.98667 14 12.64 8.72C18.2933 3.38666 25.1467 0.719998 33.2 0.719998C41.3067 0.719998 48.0267 3.06667 53.36 7.76L48.32 14.96C46.1333 13.0933 43.92 11.8133 41.68 11.12C39.4933 10.3733 36.9333 10 34 10C28.2933 10 23.52 11.7067 19.68 15.12C15.8933 18.5333 14 23.2 14 29.12C14 35.04 15.8667 39.8133 19.6 43.44C23.3333 47.0133 27.84 48.8 33.12 48.8C38.4533 48.8 42.9067 47.6533 46.48 45.36V30H55.92V49.12C53.9467 51.3067 51.5467 53.12 48.72 54.56H60.56ZM68.3069 54.56V2.08H107.587V10.96H77.7469V25.76H104.547V34.16H77.7469V49.12H108.547V54.56H116.307V58H60.5469V54.56H68.3069ZM173.131 54.56V58H155.851L142.491 39.2H130.091V58H112.891V54.56H120.651V2.08H141.451C149.984 2.08 156.091 3.52 159.771 6.4C163.451 9.28 165.291 13.8933 165.291 20.24C165.291 29.4667 161.264 35.28 153.211 37.68L165.371 54.56H173.131ZM141.851 30.64C147.184 30.64 150.811 29.8133 152.731 28.16C154.651 26.5067 155.611 23.8667 155.611 20.24C155.611 16.56 154.624 14.0533 152.651 12.72C150.677 11.3333 147.157 10.64 142.091 10.64H130.091V30.64H141.851ZM178.854 54.56V2.08H218.134V10.96H188.294V25.76H215.094V34.16H188.294V49.12H219.094V54.56H226.854V58H171.094V54.56H178.854ZM231.198 54.56V2.08H240.638L273.118 43.84V2.08H282.558V54.56H290.318V58H272.318L240.638 17.2V58H223.438V54.56H231.198ZM349.193 54.56V58H290.312V54.56H308.073C303.859 52.0533 300.526 48.64 298.073 44.32C295.673 40 294.473 35.12 294.473 29.68C294.473 21.4667 297.299 14.5867 302.953 9.04C308.659 3.49333 315.833 0.719998 324.473 0.719998C333.166 0.719998 340.419 3.92 346.233 10.32L340.233 16.88C337.566 14.32 335.033 12.5333 332.633 11.52C330.286 10.5067 327.513 10 324.313 10C318.659 10 313.913 11.84 310.073 15.52C306.233 19.1467 304.313 23.8133 304.313 29.52C304.313 35.1733 306.206 39.92 309.993 43.76C313.833 47.5467 318.366 49.44 323.593 49.44C326.846 49.44 329.646 48.9067 331.993 47.84C334.339 46.72 336.793 44.96 339.353 42.56L345.433 48.8C343.086 51.36 340.846 53.28 338.713 54.56H349.193ZM369.379 54.56V35.92L348.579 2.08H358.899L374.179 27.52L389.459 2.08H399.779L378.979 35.92V54.56H399.139V58H349.219V54.56H369.379ZM406.901 54.56V2.08H416.341V54.56H424.101V58H399.141V54.56H406.901Z" fill="url(#paint0_linear_1099_3055)"/>
<defs>
<linearGradient id="paint0_linear_1099_3055" x1="212" y1="-101.5" x2="212.5" y2="51" gradientUnits="userSpaceOnUse">
<stop stop-color="#0099FF" stop-opacity="0.5"/>
<stop offset="1" stop-color="#D3D3D3"/>
<stop offset="1" stop-color="#D3D3D3"/>
</linearGradient>
</defs>
</svg>
