<svg width="73" height="69" viewBox="0 0 73 69" fill="none" xmlns="http://www.w3.org/2000/svg">
<path d="M72.672 64.872V69H0V64.872H23.232C17.664 62.056 13.216 57.928 9.888 52.488C6.624 47.048 4.992 40.904 4.992 34.056C4.992 24.264 8.384 16.2 15.168 9.86399C21.952 3.464 30.176 0.263998 39.84 0.263998C49.568 0.263998 57.632 3.08 64.032 8.712L57.984 17.352C55.36 15.112 52.704 13.576 50.016 12.744C47.392 11.848 44.32 11.4 40.8 11.4C33.952 11.4 28.224 13.448 23.616 17.544C19.072 21.64 16.8 27.24 16.8 34.344C16.8 41.448 19.04 47.176 23.52 51.528C28 55.816 33.408 57.96 39.744 57.96C46.144 57.96 51.488 56.584 55.776 53.832V35.4H67.104V58.344C64.736 60.968 61.856 63.144 58.464 64.872H72.672Z" fill="url(#paint0_linear_1011_191)"/>
<defs>
<linearGradient id="paint0_linear_1011_191" x1="36" y1="-103" x2="36.5" y2="57" gradientUnits="userSpaceOnUse">
<stop stop-color="#0099FF" stop-opacity="0.5"/>
<stop offset="1" stop-color="#D3D3D3"/>
</linearGradient>
</defs>
</svg>
